# xmcd CD database file generated by OrangeCD 6.4
#
# Track frame offsets:
#	150
#	12157
#	35117
#	50431
#	67703
#	96064
#	112929
#	126525
#	145643
#	162194
#	184735
#
# Disc length: 2641 seconds
#
# Revision: 0
# Processed by: cddbd v1.5.2PL0 Copyright (c) Steve Scherf et al.
# Submitted via: OrangeCD 6.4
#
DISCID=8c0a4f0b
DTITLE=Claude "Butch: Morgan - Talk About
DYEAR=2011
DGENRE=
TTITLE0=Talk About
TTITLE1=Shoes
TTITLE2=God Knows I'm Human
TTITLE3=Mr. Blue
TTITLE4=I Use To Be An Animal
TTITLE5=Pretty Girl
TTITLE6=Look What You've Done
TTITLE7=Sad Cafe
TTITLE8=Gone Gone Gone
TTITLE9=Man In The Mirror
TTITLE10=I Care About You
EXTD=
EXTT0=
EXTT1=
EXTT2=
EXTT3=
EXTT4=
EXTT5=
EXTT6=
EXTT7=
EXTT8=
EXTT9=
EXTT10=
PLAYORDER=
